####
#
# OBJ File Generated by Meshlab
#
####
# Object Crate2.obj
#
# Vertices: 8
# Faces: 6
#
####
mtllib ./Crate2.obj.mtl

vn -1.000000 -2.000000 2.000000
v -1.000000 -1.000000 1.000000
vn -2.000000 -1.000000 -1.000000
v -1.000000 -1.000000 -1.000000
vn 1.000000 -2.000000 -2.000000
v 1.000000 -1.000000 -1.000000
vn 2.000000 -1.000000 1.000000
v 1.000000 -1.000000 1.000000
vn -2.000000 1.000000 1.000000
v -1.000000 1.000000 1.000000
vn -1.000000 2.000000 -2.000000
v -1.000000 1.000000 -1.000000
vn 2.000000 1.000000 -1.000000
v 1.000000 1.000000 -1.000000
vn 1.000000 2.000000 2.000000
v 1.000000 1.000000 1.000000
# 8 vertices, 0 vertices normals


usemtl material_0
vt 0.000000 0.000000
vt 0.000000 0.000000
f 6/1/6 2/1/2 1/1/1 5/2/5
vt 0.000000 0.000000
f 7/1/7 3/1/3 2/1/2 6/3/6
vt 0.000000 0.000000
f 8/1/8 4/1/4 3/1/3 7/4/7
vt -0.000000 0.000000
f 5/1/5 1/1/1 4/1/4 8/5/8
f 2/1/2 3/1/3 4/1/4 1/4/1
f 7/1/7 6/1/6 5/1/5 8/1/8
# 6 faces, 5 coords texture

# End of File
